<?xml version="1.0" encoding="UTF-8" standalone="no"?>
<svg
   viewBox="0 0 512 512"
   version="1.1"
   id="svg11"
   sodipodi:docname="logo_light.svg"
   inkscape:version="1.3 (0e150ed, 2023-07-21)"
   xmlns:inkscape="http://www.inkscape.org/namespaces/inkscape"
   xmlns:sodipodi="http://sodipodi.sourceforge.net/DTD/sodipodi-0.dtd"
   xmlns="http://www.w3.org/2000/svg"
   xmlns:svg="http://www.w3.org/2000/svg">
  <sodipodi:namedview
     id="namedview11"
     pagecolor="#505050"
     bordercolor="#eeeeee"
     borderopacity="1"
     inkscape:showpageshadow="0"
     inkscape:pageopacity="0"
     inkscape:pagecheckerboard="0"
     inkscape:deskcolor="#505050"
     inkscape:zoom="0.91992188"
     inkscape:cx="538.08917"
     inkscape:cy="499.49894"
     inkscape:window-width="2048"
     inkscape:window-height="1152"
     inkscape:window-x="0"
     inkscape:window-y="0"
     inkscape:window-maximized="0"
     inkscape:current-layer="svg11" />
  <defs
     id="defs11" />
  <g
     id="g11"
     transform="translate(0,1.9999924)">
    <rect
       x="384"
       y="388.55701"
       width="128"
       height="121.443"
       style="fill:#e6e6e6;stroke-width:2;stroke-linecap:round;stroke-linejoin:round"
       id="rect1" />
    <rect
       y="388.55701"
       width="128"
       height="121.443"
       style="fill:#999999;stroke-width:2;stroke-linecap:round;stroke-linejoin:round"
       id="rect2"
       x="0" />
    <path
       d="M 128,388.557 H 256 V 510 H 128 Z"
       style="fill:#b2b2b2;stroke-width:2;stroke-linecap:round;stroke-linejoin:round"
       id="path2" />
    <path
       d="M 384,388.557 V 510 H 256 V 388.557 Z"
       style="fill:#cccccc;stroke-width:2;stroke-linecap:round;stroke-linejoin:round"
       id="path3" />
    <path
       d="m 384,267.114 h 124 c 3.999,7.59 3.999,15.18 3.999,30.361 0,12.468 0,50.54 0,91.082 H 384 Z"
       style="fill:#cccccc;stroke-width:2;stroke-linecap:round;stroke-linejoin:round"
       id="path4" />
    <path
       d="M 128,267.114 V 388.557 H 0 c 0,-32.965 0,-66.344 0,-91.082 0,-15.181 0,-22.771 4.001,-30.361 z"
       style="fill:#b2b2b2;stroke-width:2;stroke-linecap:round;stroke-linejoin:round"
       id="path5" />
    <path
       d="M 128,267.114 H 256 V 388.557 H 128 Z"
       style="fill:#cccccc;stroke-width:2;stroke-linecap:round;stroke-linejoin:round"
       id="path6" />
    <path
       d="M 256,267.114 H 384 V 388.557 H 256 Z"
       style="fill:#e6e6e6;stroke-width:2;stroke-linecap:round;stroke-linejoin:round"
       id="path7" />
    <rect
       x="128"
       y="145.67101"
       width="128"
       height="121.443"
       style="fill:#e6e6e6;stroke-width:2;stroke-linecap:round;stroke-linejoin:round"
       id="rect7" />
    <rect
       x="256"
       y="145.67101"
       width="128"
       height="121.443"
       style="fill:#cccccc;stroke-width:2;stroke-linecap:round;stroke-linejoin:round"
       id="rect8" />
    <path
       d="M 225.27,53.386 C 234.426,44.698 245.165,40.44 256,40.55 V 145.671 H 128 c 32.933,-31.244 68.159,-64.666 97.27,-92.285 z"
       style="fill:#cccccc;stroke-width:2;stroke-linecap:round;stroke-linejoin:round"
       id="path8" />
    <path
       d="m 287.962,54.552 c 28.41,26.957 63.3,60.058 96.038,91.119 H 256 V 40.55 c 11.083,0.116 22.266,4.804 31.962,14.002 z"
       style="fill:#b2b2b2;stroke-width:2;stroke-linecap:round;stroke-linejoin:round"
       id="path9" />
    <path
       d="M 32,236.754 C 49.728,219.933 87.095,184.48 128,145.671 V 267.114 H 4.001 C 8,259.524 16,251.934 32,236.754 Z"
       style="fill:#cccccc;stroke-width:2;stroke-linecap:round;stroke-linejoin:round"
       id="path10" />
    <path
       d="m 479.999,236.754 c 16,15.18 24.001,22.77 28.001,30.36 H 384 V 145.671 c 41.053,38.951 78.727,74.694 95.999,91.083 z"
       style="fill:#b2b2b2;stroke-width:2;stroke-linecap:round;stroke-linejoin:round"
       id="path11" />
  </g>
  <g
     id="g32"
     transform="translate(0,496.60721)">
    <rect
       x="384"
       y="388.55701"
       width="128"
       height="121.443"
       style="fill:#191919;stroke-width:2;stroke-linecap:round;stroke-linejoin:round"
       id="rect22" />
    <rect
       y="388.55701"
       width="128"
       height="121.443"
       style="fill:#666666;stroke-width:2;stroke-linecap:round;stroke-linejoin:round"
       id="rect23"
       x="0" />
    <path
       d="M 128,388.557 H 256 V 510 H 128 Z"
       style="fill:#4d4d4d;stroke-width:2;stroke-linecap:round;stroke-linejoin:round"
       id="path23" />
    <path
       d="M 384,388.557 V 510 H 256 V 388.557 Z"
       style="fill:#333333;stroke-width:2;stroke-linecap:round;stroke-linejoin:round"
       id="path24" />
    <path
       d="m 384,267.114 h 124 c 3.999,7.59 3.999,15.18 3.999,30.361 0,12.468 0,50.54 0,91.082 H 384 Z"
       style="fill:#333333;stroke-width:2;stroke-linecap:round;stroke-linejoin:round"
       id="path25" />
    <path
       d="M 128,267.114 V 388.557 H 0 c 0,-32.965 0,-66.344 0,-91.082 0,-15.181 0,-22.771 4.001,-30.361 z"
       style="fill:#4d4d4d;stroke-width:2;stroke-linecap:round;stroke-linejoin:round"
       id="path26" />
    <path
       d="M 128,267.114 H 256 V 388.557 H 128 Z"
       style="fill:#333333;stroke-width:2;stroke-linecap:round;stroke-linejoin:round"
       id="path27" />
    <path
       d="M 256,267.114 H 384 V 388.557 H 256 Z"
       style="fill:#191919;stroke-width:2;stroke-linecap:round;stroke-linejoin:round"
       id="path28" />
    <rect
       x="128"
       y="145.67101"
       width="128"
       height="121.443"
       style="fill:#191919;stroke-width:2;stroke-linecap:round;stroke-linejoin:round"
       id="rect28" />
    <rect
       x="256"
       y="145.67101"
       width="128"
       height="121.443"
       style="fill:#333333;stroke-width:2;stroke-linecap:round;stroke-linejoin:round"
       id="rect29" />
    <path
       d="M 225.27,53.386 C 234.426,44.698 245.165,40.44 256,40.55 V 145.671 H 128 c 32.933,-31.244 68.159,-64.666 97.27,-92.285 z"
       style="fill:#333333;stroke-width:2;stroke-linecap:round;stroke-linejoin:round"
       id="path29" />
    <path
       d="m 287.962,54.552 c 28.41,26.957 63.3,60.058 96.038,91.119 H 256 V 40.55 c 11.083,0.116 22.266,4.804 31.962,14.002 z"
       style="fill:#4d4d4d;stroke-width:2;stroke-linecap:round;stroke-linejoin:round"
       id="path30" />
    <path
       d="M 32,236.754 C 49.728,219.933 87.095,184.48 128,145.671 V 267.114 H 4.001 C 8,259.524 16,251.934 32,236.754 Z"
       style="fill:#333333;stroke-width:2;stroke-linecap:round;stroke-linejoin:round"
       id="path31" />
    <path
       d="m 479.999,236.754 c 16,15.18 24.001,22.77 28.001,30.36 H 384 V 145.671 c 41.053,38.951 78.727,74.694 95.999,91.083 z"
       style="fill:#4d4d4d;stroke-width:2;stroke-linecap:round;stroke-linejoin:round"
       id="path32" />
  </g>
</svg>
